# xmcd
#
# Track frame offsets:
#	150
#	20867
#	42992
#	62585
#	76685
#	91985
#	121180
#	141430
#	160122
#	174035
#	190142
#	211947
#	230322
#
# Disc length: 3289 seconds
# Revision: 2
# Processed by: cddbd v1.5.2PL0 Copyright (c) Steve Scherf et al.
# Submitted via: dBpowerAMP V12.0
#
DISCID=9f0cd70d
DTITLE=Ed Vadas' Fabulous Heavyweights - South Side of 50
DYEAR=1900
DGENRE=Blues
TTITLE0=Empty Pocket Blues
TTITLE1=Killin' Floor
TTITLE2=300 Pounds O'Joy
TTITLE3=Start All over Again
TTITLE4=Please! Mr. Bill
TTITLE5=Don't Go to Cryin'
TTITLE6=What's Wrong with Me
TTITLE7=Honky Tonk
TTITLE8=South Side of Fifty
TTITLE9=Goin' to Louisianna
TTITLE10=Everybody Gets the Blues
TTITLE11=Rumble on Armingo Avenue
TTITLE12=Help Me
EXTD=
EXTT0=
EXTT1=
EXTT2=
EXTT3=
EXTT4=
EXTT5=
EXTT6=
EXTT7=
EXTT8=
EXTT9=
EXTT10=
EXTT11=
EXTT12=
PLAYORDER=
